<mxfile host="Electron" modified="2024-05-25T07:24:27.303Z" agent="Mozilla/5.0 (Windows NT 10.0; Win64; x64) AppleWebKit/537.36 (KHTML, like Gecko) draw.io/24.4.8 Chrome/124.0.6367.207 Electron/30.0.6 Safari/537.36" etag="HsR8Y4UEOf2WxXcWproG" version="24.4.8" type="device">
  <diagram name="Page-1" id="oppRlDcxTwiY_dc2-8NS">
    <mxGraphModel dx="2219" dy="621" grid="1" gridSize="10" guides="1" tooltips="1" connect="1" arrows="1" fold="1" page="1" pageScale="1" pageWidth="1169" pageHeight="827" math="0" shadow="0">
      <root>
        <mxCell id="0" />
        <mxCell id="1" parent="0" />
        <mxCell id="U4S6ZvzDiD-DC9_qysCN-12" value="" style="rounded=0;whiteSpace=wrap;html=1;fillColor=none;strokeColor=#039bc6;dashed=1;" vertex="1" parent="1">
          <mxGeometry x="200" y="120" width="960" height="480" as="geometry" />
        </mxCell>
        <mxCell id="U4S6ZvzDiD-DC9_qysCN-17" value="" style="rounded=0;whiteSpace=wrap;html=1;fillColor=none;strokeColor=#FF9933;dashed=1;" vertex="1" parent="1">
          <mxGeometry x="240" y="180" width="900" height="380" as="geometry" />
        </mxCell>
        <mxCell id="U4S6ZvzDiD-DC9_qysCN-25" value="" style="rounded=0;whiteSpace=wrap;html=1;fillColor=none;strokeColor=#FF0080;dashed=1;" vertex="1" parent="1">
          <mxGeometry x="290" y="240" width="470" height="280" as="geometry" />
        </mxCell>
        <mxCell id="U4S6ZvzDiD-DC9_qysCN-27" value="" style="rounded=0;whiteSpace=wrap;html=1;fillColor=none;strokeColor=#FF0080;dashed=1;" vertex="1" parent="1">
          <mxGeometry x="800" y="240" width="320" height="280" as="geometry" />
        </mxCell>
        <mxCell id="U4S6ZvzDiD-DC9_qysCN-1" value="" style="image;sketch=0;aspect=fixed;html=1;points=[];align=center;fontSize=12;image=img/lib/mscae/Docker.svg;imageBorder=none;perimeterSpacing=0;" vertex="1" parent="1">
          <mxGeometry x="203" y="120" width="60.98" height="50" as="geometry" />
        </mxCell>
        <mxCell id="U4S6ZvzDiD-DC9_qysCN-28" style="edgeStyle=orthogonalEdgeStyle;rounded=0;orthogonalLoop=1;jettySize=auto;html=1;startArrow=classic;startFill=1;" edge="1" parent="1" source="U4S6ZvzDiD-DC9_qysCN-4" target="U4S6ZvzDiD-DC9_qysCN-9">
          <mxGeometry relative="1" as="geometry" />
        </mxCell>
        <mxCell id="U4S6ZvzDiD-DC9_qysCN-32" value="Query Table&lt;br&gt;&lt;font color=&quot;#ff0000&quot;&gt;pinot-broker:8098&lt;br&gt;pinot-controller:9000&lt;/font&gt;" style="edgeLabel;html=1;align=center;verticalAlign=middle;resizable=0;points=[];" vertex="1" connectable="0" parent="U4S6ZvzDiD-DC9_qysCN-28">
          <mxGeometry x="-0.0362" y="1" relative="1" as="geometry">
            <mxPoint y="31" as="offset" />
          </mxGeometry>
        </mxCell>
        <mxCell id="U4S6ZvzDiD-DC9_qysCN-4" value="NetworkAlarms Table" style="shape=image;verticalLabelPosition=bottom;labelBackgroundColor=default;verticalAlign=top;aspect=fixed;imageAspect=0;image=https://communityinviter.com/apache-pinot-log.jpeg;fontColor=#FF0000;" vertex="1" parent="1">
          <mxGeometry x="585" y="287.37" width="150" height="145.25" as="geometry" />
        </mxCell>
        <mxCell id="U4S6ZvzDiD-DC9_qysCN-5" value="" style="shape=image;verticalLabelPosition=bottom;labelBackgroundColor=default;verticalAlign=top;aspect=fixed;imageAspect=0;image=https://cdn.icon-icons.com/icons2/2699/PNG/512/apache_kafka_vertical_logo_icon_169585.png;" vertex="1" parent="1">
          <mxGeometry x="330" y="300" width="114.8" height="120" as="geometry" />
        </mxCell>
        <mxCell id="U4S6ZvzDiD-DC9_qysCN-9" value="" style="shape=image;verticalLabelPosition=bottom;labelBackgroundColor=default;verticalAlign=top;aspect=fixed;imageAspect=0;image=https://opensource-it.com/wp-content/uploads/2018/09/Superset-Logo.png;" vertex="1" parent="1">
          <mxGeometry x="860" y="310.72999999999996" width="223.45" height="98.53" as="geometry" />
        </mxCell>
        <mxCell id="U4S6ZvzDiD-DC9_qysCN-14" style="edgeStyle=orthogonalEdgeStyle;rounded=0;orthogonalLoop=1;jettySize=auto;html=1;entryX=0;entryY=0.5;entryDx=0;entryDy=0;" edge="1" parent="1" source="U4S6ZvzDiD-DC9_qysCN-10" target="U4S6ZvzDiD-DC9_qysCN-13">
          <mxGeometry relative="1" as="geometry" />
        </mxCell>
        <mxCell id="U4S6ZvzDiD-DC9_qysCN-10" value="Network alamrs simulation&#xa;(Python script)" style="shape=image;verticalLabelPosition=bottom;labelBackgroundColor=default;verticalAlign=top;aspect=fixed;imageAspect=0;image=https://cdn-icons-png.flaticon.com/512/3470/3470508.png;" vertex="1" parent="1">
          <mxGeometry x="-80" y="294.5" width="131" height="131" as="geometry" />
        </mxCell>
        <mxCell id="U4S6ZvzDiD-DC9_qysCN-21" style="edgeStyle=orthogonalEdgeStyle;rounded=0;orthogonalLoop=1;jettySize=auto;html=1;" edge="1" parent="1" source="U4S6ZvzDiD-DC9_qysCN-13" target="U4S6ZvzDiD-DC9_qysCN-20">
          <mxGeometry relative="1" as="geometry" />
        </mxCell>
        <mxCell id="U4S6ZvzDiD-DC9_qysCN-13" value="" style="rhombus;whiteSpace=wrap;html=1;fillColor=#0b9ce5;" vertex="1" parent="1">
          <mxGeometry x="180" y="340" width="40" height="40" as="geometry" />
        </mxCell>
        <mxCell id="U4S6ZvzDiD-DC9_qysCN-16" value="localhost:29092" style="text;html=1;align=center;verticalAlign=middle;whiteSpace=wrap;rounded=0;" vertex="1" parent="1">
          <mxGeometry x="120" y="365" width="60" height="30" as="geometry" />
        </mxCell>
        <mxCell id="U4S6ZvzDiD-DC9_qysCN-18" value="&lt;b&gt;&lt;font color=&quot;#ff9933&quot;&gt;streaming-nt&lt;br&gt;&lt;/font&gt;&lt;/b&gt;Shared external Docker network" style="text;html=1;align=left;verticalAlign=middle;whiteSpace=wrap;rounded=0;" vertex="1" parent="1">
          <mxGeometry x="240" y="185" width="180" height="30" as="geometry" />
        </mxCell>
        <mxCell id="U4S6ZvzDiD-DC9_qysCN-20" value="External Listener" style="rounded=0;whiteSpace=wrap;html=1;textDirection=vertical-lr;fillColor=#ffe6cc;strokeColor=#d79b00;" vertex="1" parent="1">
          <mxGeometry x="300" y="305" width="30" height="110" as="geometry" />
        </mxCell>
        <mxCell id="U4S6ZvzDiD-DC9_qysCN-23" style="edgeStyle=orthogonalEdgeStyle;rounded=0;orthogonalLoop=1;jettySize=auto;html=1;entryX=0;entryY=0.5;entryDx=0;entryDy=0;startArrow=classicThin;startFill=1;endArrow=classicThin;endFill=1;" edge="1" parent="1" source="U4S6ZvzDiD-DC9_qysCN-22" target="U4S6ZvzDiD-DC9_qysCN-4">
          <mxGeometry relative="1" as="geometry" />
        </mxCell>
        <mxCell id="U4S6ZvzDiD-DC9_qysCN-24" value="Pulling&amp;nbsp;&lt;div&gt;new records&lt;/div&gt;&lt;div&gt;&lt;font color=&quot;#ff0000&quot;&gt;kafka:9092&lt;/font&gt;&lt;/div&gt;" style="edgeLabel;html=1;align=center;verticalAlign=middle;resizable=0;points=[];" vertex="1" connectable="0" parent="U4S6ZvzDiD-DC9_qysCN-23">
          <mxGeometry x="-0.047" y="1" relative="1" as="geometry">
            <mxPoint as="offset" />
          </mxGeometry>
        </mxCell>
        <mxCell id="U4S6ZvzDiD-DC9_qysCN-22" value="Internal Listener" style="rounded=0;whiteSpace=wrap;html=1;textDirection=vertical-lr;fillColor=#d5e8d4;strokeColor=#82b366;" vertex="1" parent="1">
          <mxGeometry x="440" y="305" width="30" height="110" as="geometry" />
        </mxCell>
        <mxCell id="U4S6ZvzDiD-DC9_qysCN-26" value="&lt;b style=&quot;&quot;&gt;&lt;font color=&quot;#ff0080&quot;&gt;Docker compose file 1&lt;/font&gt;&lt;/b&gt;" style="text;html=1;align=left;verticalAlign=middle;whiteSpace=wrap;rounded=0;" vertex="1" parent="1">
          <mxGeometry x="290" y="490" width="180" height="30" as="geometry" />
        </mxCell>
        <mxCell id="U4S6ZvzDiD-DC9_qysCN-29" value="&lt;b style=&quot;&quot;&gt;&lt;font color=&quot;#ff0080&quot;&gt;Docker compose file 2&lt;/font&gt;&lt;/b&gt;" style="text;html=1;align=left;verticalAlign=middle;whiteSpace=wrap;rounded=0;" vertex="1" parent="1">
          <mxGeometry x="800" y="490" width="180" height="30" as="geometry" />
        </mxCell>
      </root>
    </mxGraphModel>
  </diagram>
</mxfile>
